PathFileType	4	(X/Y/Z)	k10_0-1010.trc
DataRate	CameraRate	NumFrames	NumMarkers	Units	OrigDataRate	OrigDataStartFrame	OrigNumFrames
120	120	5	27	m	120	757	1010
Frame#	Time	RHip			RKnee			RAnkle			RBigToe			RSmallToe			RHeel			LHip			LKnee			LAnkle			LBigToe			LSmallToe			LHeel			Nose			REye			LEye			RShoulder			RElbow			RWrist			RThumb			RIndex			RPinky			LShoulder			LElbow			LWrist			LThumb			LIndex			LPinky			
		X1	Y1	Z1	X2	Y2	Z2	X3	Y3	Z3	X4	Y4	Z4	X5	Y5	Z5	X6	Y6	Z6	X7	Y7	Z7	X8	Y8	Z8	X9	Y9	Z9	X10	Y10	Z10	X11	Y11	Z11	X12	Y12	Z12	X13	Y13	Z13	X14	Y14	Z14	X15	Y15	Z15	X16	Y16	Z16	X17	Y17	Z17	X18	Y18	Z18	X19	Y19	Z19	X20	Y20	Z20	X21	Y21	Z21	X22	Y22	Z22	X23	Y23	Z23	X24	Y24	Z24	X25	Y25	Z25	X26	Y26	Z26	X27	Y27	Z27	
757	6.308333333333334	0.236786565083523	0.9956592413178654	0.8615151413363458	0.1368902286522039	0.96200205303141	0.4486837348941122	0.2118464947721231	1.0945836023652704	0.08231770894141388	0.10596499152003012	0.9642515737408675	0.012194543550192335	0.09477529480167125	1.021964224897731	0.023892368138493505	0.24755020050316986	1.1200631425338128	0.03338338782251996	0.43992413591198676	0.935918590891549	0.8517527000130175	0.3921879348077211	0.9112947884896442	0.4171666235329491	0.5704152220043641	1.163348055609243	0.15765098368830205	0.5017483892352934	1.1009524286764127	0.00946305491573005	0.5532016909756642	1.1004758823474659	0.021253251836705362	0.5969398382649667	1.2160162397442702	0.13815015680710338	0.235710359694734	0.654483238155789	1.4139956932017157	0.20506897716372227	0.6688426111831991	1.4446805905616382	0.25003633020004595	0.6337115091610039	1.4454391454216695	0.1617082559872438	0.9652851036381824	1.3142101361586163	0.09436295466607511	1.0668210137182115	1.0520937013804657	-0.007716615549931046	1.0092817883359855	0.8404785582021604	-0.019808423162904945	0.9553214943678063	0.7819122336762908	-0.04969016392284972	0.9635874186244348	0.7568997692442139	-0.028322846105764046	1.0190758513359857	0.7459033073325959	0.48792471172212454	0.7591571482854528	1.3171356392339582	0.5945579083934324	0.7270477299860957	1.0474497276016645	0.6167066736769556	0.556425113544547	0.8671533188381233	0.5761620102389877	0.49427542613789904	0.8295532230101945	0.5974778744466305	0.46685819662073746	0.8115731425987327	0.6313819297152473	0.5129520844361941	0.7851954323454119
758	6.316666666666666	0.23424863484676522	0.9910052493009524	0.8604467892818574	0.13373557446747972	0.9594939694646171	0.4466688004591948	0.21183383296542513	1.0944477440572078	0.08191350631696966	0.10524350368437038	0.9652498052457766	0.011862993171542593	0.09399314075127174	1.02344886270169	0.023318298452789345	0.24783449926753695	1.1194238966875192	0.03311448115757176	0.4363210097982286	0.9294388211510756	0.8500248732888075	0.3816377239861145	0.8962298189360345	0.4153599535016657	0.5645137572595925	1.1527794218152447	0.1649063362672637	0.49914823706635747	1.0988787154844526	0.01040976619097389	0.5497572111977743	1.0967876221186985	0.023450873144351632	0.591414548163001	1.2059025100258043	0.14805929676873375	0.2318519963023083	0.6484407395631345	1.4120083786915973	0.2013566861939895	0.6621977320187395	1.442541914566877	0.24623490048114	0.6279005621238489	1.4433525317625648	0.1573289767869819	0.958429313346758	1.312597523590364	0.08708723648546418	1.0577853391342609	1.0501684163060945	-0.014167301913151386	0.996892005097211	0.8394695531358728	-0.02686920303531962	0.9429702825760207	0.7817080105644187	-0.05635928410545253	0.9508212428143648	0.7566391035544026	-0.03507412480920253	1.0062071859435366	0.7452945185896669	0.4839187132701104	0.7544612124389314	1.3156227107000482	0.5928784201450596	0.7228990267261372	1.0472934859399061	0.6211780642638939	0.5543144565917562	0.867163376371447	0.5810613543146048	0.49158659617000383	0.8288168581224017	0.6037943652166233	0.46528509367244003	0.8108368290919926	0.6386782943097778	0.5123830549419983	0.7853753418047856
759	6.325	0.23185315300727574	0.9864623115253706	0.8593946909339171	0.13075280615093152	0.9570933673747168	0.44487171784424095	0.21179902364101036	1.0943190079438596	0.08151789424991286	0.10458630229818332	0.9662071565925904	0.011535234866613849	0.09332775925589346	1.0247517123057066	0.022745977027010957	0.24805770965893867	1.118842656492268	0.0328658485147575	0.43263403467946726	0.9226990782829099	0.8483204844978338	0.37105940837629514	0.8809362580233072	0.41393841818772675	0.5579198328559792	1.141435777801112	0.17190892245505435	0.4956218205971114	1.0952468966946467	0.011705515934235442	0.5453413076987548	1.09159365367266	0.02594938091101033	0.5851908574666116	1.19502051223715	0.1575364108387199	0.22818486329606671	0.64219156701473	1.4100493285805453	0.19786924768326733	0.6552688107315732	1.4404408391010775	0.24264735088617656	0.6219063222866228	1.4413291348071235	0.1530634075450977	0.95137826411032	1.3110368677756121	0.07968691003063678	1.0483959606198727	1.0484865901653864	-0.02077897216777647	0.9839217952544561	0.8386396559449257	-0.03413348488144981	0.9300139726210744	0.7817749562290944	-0.06321791722881559	0.9373939650791792	0.7567660612510771	-0.04206550250839696	0.9925989196423267	0.7450305158854585	0.4800949289604926	0.74967739335397	1.3142047928488767	0.5915278897985579	0.7187117180350813	1.0474076133242773	0.6258675815794662	0.5522137448831692	0.8673931886944162	0.586231620634737	0.48894831086010826	0.8282858974565237	0.6102780210421718	0.46361638179802117	0.8103107309224958	0.646146398496317	0.5116642363162849	0.7857810266307728
760	6.333333333333333	0.2295241279334258	0.9819292303947373	0.8583541140828841	0.12804938688327303	0.9548100652309509	0.44331444052856195	0.21174509707231245	1.0941963977310247	0.08113283066980585	0.10401869845331739	0.9670412002444526	0.011233992989800977	0.0928154856019503	1.0257841364136968	0.022196726576307342	0.24822061287272928	1.1183282344762	0.03262023118519888	0.4288065349161905	0.9156551913719332	0.8466712511592096	0.36055332852988553	0.8654299645633005	0.4129101223280299	0.5506346381670515	1.1293265813003246	0.178495981898113	0.49102630812571746	1.0897955305473745	0.013319370178254684	0.5398299938644646	1.0846767923991947	0.02868402707799658	0.5782854314633284	1.1833817564713731	0.166332181587755	0.22473470848405527	0.6356993307732438	1.408152759605044	0.1946284871752876	0.6480323190541797	1.4384210497811516	0.2392889515197007	0.6156874165377227	1.439401016944299	0.14893492780369552	0.9441194435836326	1.309569090794405	0.07221165144181908	1.0386559291668258	1.0470988698729906	-0.027539165229762512	0.9703903787947803	0.8380615752989763	-0.04152858773274531	0.9164613915451676	0.7821565912933718	-0.0702317641981671	0.9232801702962001	0.757330836673518	-0.04929996805164006	0.9782932236866062	0.7451484755791398	0.47646605169478584	0.7447758758503783	1.312922257908078	0.5904881126790669	0.714446335686693	1.0477901412740875	0.6307416056628129	0.5500599692638767	0.867843561992923	0.5916900053707	0.4863475738211712	0.8279727408379739	0.6168882309589527	0.4617773594938437	0.8100054432481025	0.6537497716322166	0.5107448060817112	0.7864079446238267
761	6.341666666666667	0.2271804139902095	0.9772887538394494	0.8573230234743731	0.12574441853089494	0.9526663437442521	0.44201439114805424	0.21167862265347415	1.0940733004196146	0.08076784925040911	0.10355897578714299	0.967670774489509	0.010978745431919228	0.0924915426084352	1.0264628739892008	0.02168930391555384	0.2483318311449167	1.117881417349423	0.03236536349506854	0.424800599615206	0.9082809127859907	0.8451236688065165	0.3502294214944584	0.8497279649204774	0.412268820636832	0.5426563204528513	1.116468152522464	0.184495693099963	0.4852495100814179	1.0823463646034324	0.015196753967664355	0.5331387727017015	1.0758883147448193	0.03157060268899976	0.5707052167396168	1.1709980654568395	0.17420113166342036	0.22151942560182541	0.6289353235743972	1.406358383684723	0.1916497516518957	0.6404768634888143	1.4365325324531644	0.2361702911923893	0.6092057007294204	1.437603372883307	0.1449607477458433	0.9366254086311513	1.3082384959269646	0.06470765168936982	1.028556880514497	1.046058118571472	-0.034432404676220225	0.9563203577222996	0.8378134369957589	-0.04897542140892271	0.9023243169003136	0.7829008589412104	-0.07735372057716919	0.908486285698923	0.7583777245475483	-0.05677483121987349	0.9633680650463449	0.7456971934658191	0.47304476629540304	0.7397229278833068	1.3118180766810688	0.5897430755363886	0.7100806020045485	1.048435055495991	0.6357716166014074	0.547786125406281	0.8685123237671649	0.5974426164995124	0.48375120537267696	0.8278889400244908	0.6236043518883068	0.45970682954857783	0.8099296281457284	0.661437928892095	0.5095718499555095	0.787243566595892
